<mxfile host="app.diagrams.net" modified="2023-05-19T20:23:17.735Z" agent="Mozilla/5.0 (Windows NT 10.0; Win64; x64) AppleWebKit/537.36 (KHTML, like Gecko) Chrome/113.0.0.0 Safari/537.36 Edg/113.0.1774.42" etag="Kajpkfusm0aHbhYC6d4E" version="21.3.2" type="device">
  <diagram id="C5RBs43oDa-KdzZeNtuy" name="Page-1">
    <mxGraphModel dx="949" dy="1692" grid="1" gridSize="10" guides="1" tooltips="1" connect="1" arrows="1" fold="1" page="1" pageScale="1" pageWidth="827" pageHeight="1169" math="0" shadow="0">
      <root>
        <mxCell id="WIyWlLk6GJQsqaUBKTNV-0" />
        <mxCell id="WIyWlLk6GJQsqaUBKTNV-1" parent="WIyWlLk6GJQsqaUBKTNV-0" />
        <mxCell id="WIyWlLk6GJQsqaUBKTNV-3" value="&lt;font style=&quot;font-size: 14px;&quot;&gt;&lt;b&gt;detect_plate.py&lt;/b&gt;&lt;/font&gt;" style="rounded=1;whiteSpace=wrap;html=1;fontSize=12;glass=0;strokeWidth=1;shadow=1;labelBackgroundColor=none;fillColor=#B2C9AB;strokeColor=#788AA3;fontColor=#46495D;" parent="WIyWlLk6GJQsqaUBKTNV-1" vertex="1">
          <mxGeometry x="140" y="80" width="200" height="40" as="geometry" />
        </mxCell>
        <mxCell id="AcJniJlj3SQDIRmFu_If-0" value="&lt;span style=&quot;font-size: 14px;&quot;&gt;perspektív korrekció, vágás, sztenderdizálás&lt;/span&gt;" style="rounded=1;whiteSpace=wrap;html=1;labelBackgroundColor=none;fillColor=#B2C9AB;strokeColor=#788AA3;fontColor=#46495D;shadow=1;" vertex="1" parent="WIyWlLk6GJQsqaUBKTNV-1">
          <mxGeometry x="140" y="170" width="200" height="60" as="geometry" />
        </mxCell>
        <mxCell id="AcJniJlj3SQDIRmFu_If-6" value="" style="rounded=0;html=1;jettySize=auto;orthogonalLoop=1;fontSize=11;endArrow=classic;endFill=0;endSize=8;strokeWidth=2;shadow=0;labelBackgroundColor=none;edgeStyle=orthogonalEdgeStyle;shape=flexArrow;strokeColor=#788AA3;fontColor=default;startSize=8;fillColor=none;" edge="1" parent="WIyWlLk6GJQsqaUBKTNV-1">
          <mxGeometry relative="1" as="geometry">
            <mxPoint x="239.5" y="230" as="sourcePoint" />
            <mxPoint x="239.5" y="280" as="targetPoint" />
          </mxGeometry>
        </mxCell>
        <mxCell id="AcJniJlj3SQDIRmFu_If-44" value="" style="group" vertex="1" connectable="0" parent="WIyWlLk6GJQsqaUBKTNV-1">
          <mxGeometry x="160" y="30" width="200" height="540" as="geometry" />
        </mxCell>
        <mxCell id="AcJniJlj3SQDIRmFu_If-73" value="&lt;span style=&quot;font-size: 14px;&quot;&gt;binarizálás &lt;i&gt;(Otsu)&lt;/i&gt;&lt;/span&gt;" style="whiteSpace=wrap;html=1;rounded=1;labelBackgroundColor=none;fillColor=#B2C9AB;strokeColor=#788AA3;fontColor=#46495D;shadow=1;" vertex="1" parent="AcJniJlj3SQDIRmFu_If-44">
          <mxGeometry x="-20" y="350" width="200" height="50" as="geometry" />
        </mxCell>
        <mxCell id="AcJniJlj3SQDIRmFu_If-1" value="&lt;span style=&quot;font-size: 14px;&quot;&gt;szürkeárnyalatos kép előállítása&lt;/span&gt;" style="whiteSpace=wrap;html=1;rounded=1;labelBackgroundColor=none;fillColor=#B2C9AB;strokeColor=#788AA3;fontColor=#46495D;shadow=1;" vertex="1" parent="AcJniJlj3SQDIRmFu_If-44">
          <mxGeometry x="-20" y="250" width="200" height="50" as="geometry" />
        </mxCell>
        <mxCell id="AcJniJlj3SQDIRmFu_If-77" value="" style="rounded=0;html=1;jettySize=auto;orthogonalLoop=1;fontSize=11;endArrow=classic;endFill=0;endSize=8;strokeWidth=2;shadow=0;labelBackgroundColor=none;edgeStyle=orthogonalEdgeStyle;shape=flexArrow;strokeColor=#788AA3;fontColor=default;startSize=8;fillColor=none;" edge="1" parent="AcJniJlj3SQDIRmFu_If-44">
          <mxGeometry relative="1" as="geometry">
            <mxPoint x="79.6" y="90" as="sourcePoint" />
            <mxPoint x="79.6" y="140" as="targetPoint" />
          </mxGeometry>
        </mxCell>
        <mxCell id="AcJniJlj3SQDIRmFu_If-78" value="" style="rounded=0;html=1;jettySize=auto;orthogonalLoop=1;fontSize=11;endArrow=classic;endFill=0;endSize=8;strokeWidth=2;shadow=0;labelBackgroundColor=none;edgeStyle=orthogonalEdgeStyle;shape=flexArrow;strokeColor=#788AA3;fontColor=default;startSize=8;fillColor=none;" edge="1" parent="AcJniJlj3SQDIRmFu_If-44">
          <mxGeometry relative="1" as="geometry">
            <mxPoint x="79.6" y="300" as="sourcePoint" />
            <mxPoint x="79.6" y="350" as="targetPoint" />
          </mxGeometry>
        </mxCell>
        <mxCell id="AcJniJlj3SQDIRmFu_If-8" value="" style="rounded=0;html=1;jettySize=auto;orthogonalLoop=1;fontSize=11;endArrow=classic;endFill=0;endSize=8;strokeWidth=2;shadow=0;labelBackgroundColor=none;edgeStyle=orthogonalEdgeStyle;shape=flexArrow;strokeColor=#788AA3;fontColor=default;startSize=8;fillColor=none;" edge="1" parent="AcJniJlj3SQDIRmFu_If-44">
          <mxGeometry relative="1" as="geometry">
            <mxPoint x="79.6" y="400" as="sourcePoint" />
            <mxPoint x="79.6" y="450" as="targetPoint" />
          </mxGeometry>
        </mxCell>
        <mxCell id="AcJniJlj3SQDIRmFu_If-60" value="" style="html=1;whiteSpace=wrap;aspect=fixed;shape=isoRectangle;strokeColor=#788AA3;fontColor=#46495D;fillColor=#B2C9AB;" vertex="1" parent="AcJniJlj3SQDIRmFu_If-44">
          <mxGeometry x="5" y="450" width="150" height="90" as="geometry" />
        </mxCell>
        <mxCell id="AcJniJlj3SQDIRmFu_If-70" value="Hamis" style="text;html=1;strokeColor=none;fillColor=none;align=center;verticalAlign=middle;whiteSpace=wrap;rounded=0;fontColor=#46495D;" vertex="1" parent="AcJniJlj3SQDIRmFu_If-44">
          <mxGeometry x="150" y="470" width="60" height="30" as="geometry" />
        </mxCell>
        <mxCell id="AcJniJlj3SQDIRmFu_If-67" value="" style="endArrow=classic;html=1;rounded=0;strokeColor=#788AA3;fontColor=default;fillColor=none;labelBackgroundColor=none;endFill=0;endSize=8;strokeWidth=2;shadow=0;startSize=8;entryX=0;entryY=0.5;entryDx=0;entryDy=0;" edge="1" parent="AcJniJlj3SQDIRmFu_If-44" target="AcJniJlj3SQDIRmFu_If-74">
          <mxGeometry width="50" height="50" relative="1" as="geometry">
            <mxPoint x="155" y="494.6" as="sourcePoint" />
            <mxPoint x="195" y="494.6" as="targetPoint" />
          </mxGeometry>
        </mxCell>
        <mxCell id="AcJniJlj3SQDIRmFu_If-61" value="&lt;font style=&quot;font-size: 14px;&quot;&gt;&lt;i&gt;YOLO &lt;/i&gt;detektálta a sarkokat?&lt;/font&gt;" style="text;html=1;strokeColor=none;fillColor=none;align=center;verticalAlign=middle;whiteSpace=wrap;rounded=0;fontColor=#46495D;" vertex="1" parent="AcJniJlj3SQDIRmFu_If-44">
          <mxGeometry x="25" y="480" width="110" height="30" as="geometry" />
        </mxCell>
        <mxCell id="AcJniJlj3SQDIRmFu_If-92" value="" style="rounded=0;html=1;jettySize=auto;orthogonalLoop=1;fontSize=11;endArrow=classic;endFill=0;endSize=8;strokeWidth=2;shadow=0;labelBackgroundColor=none;edgeStyle=orthogonalEdgeStyle;shape=flexArrow;strokeColor=#788AA3;fontColor=default;startSize=8;fillColor=none;" edge="1" parent="AcJniJlj3SQDIRmFu_If-44">
          <mxGeometry relative="1" as="geometry">
            <mxPoint x="80" y="-10" as="sourcePoint" />
            <mxPoint x="79.6" y="50" as="targetPoint" />
          </mxGeometry>
        </mxCell>
        <mxCell id="AcJniJlj3SQDIRmFu_If-66" value="" style="endArrow=classic;html=1;rounded=0;strokeColor=#788AA3;fontColor=default;fillColor=none;labelBackgroundColor=none;endFill=0;endSize=8;strokeWidth=2;shadow=0;startSize=8;" edge="1" parent="WIyWlLk6GJQsqaUBKTNV-1">
          <mxGeometry width="50" height="50" relative="1" as="geometry">
            <mxPoint x="239.6" y="570" as="sourcePoint" />
            <mxPoint x="239.6" y="600" as="targetPoint" />
          </mxGeometry>
        </mxCell>
        <mxCell id="AcJniJlj3SQDIRmFu_If-68" value="Igaz" style="text;html=1;strokeColor=none;fillColor=none;align=center;verticalAlign=middle;whiteSpace=wrap;rounded=0;fontColor=#46495D;" vertex="1" parent="WIyWlLk6GJQsqaUBKTNV-1">
          <mxGeometry x="230" y="569.5" width="60" height="30" as="geometry" />
        </mxCell>
        <mxCell id="AcJniJlj3SQDIRmFu_If-71" value="&lt;span style=&quot;font-size: 14px;&quot;&gt;- perspektív transzformáció,&lt;br&gt;- fehér keret hozzáadása (padding)&lt;br&gt;- dilatáció&lt;br&gt;- nyitás&lt;br&gt;&lt;/span&gt;" style="whiteSpace=wrap;html=1;rounded=1;labelBackgroundColor=none;fillColor=#B2C9AB;strokeColor=#788AA3;fontColor=#46495D;shadow=1;" vertex="1" parent="WIyWlLk6GJQsqaUBKTNV-1">
          <mxGeometry x="142.5" y="599.5" width="195" height="90" as="geometry" />
        </mxCell>
        <mxCell id="AcJniJlj3SQDIRmFu_If-74" value="&lt;span style=&quot;font-size: 14px;&quot;&gt;szürkeárnyalatos kép&lt;/span&gt;" style="whiteSpace=wrap;html=1;rounded=1;labelBackgroundColor=none;fillColor=#B2C9AB;strokeColor=#788AA3;fontColor=#46495D;shadow=1;" vertex="1" parent="WIyWlLk6GJQsqaUBKTNV-1">
          <mxGeometry x="380" y="500" width="160" height="50" as="geometry" />
        </mxCell>
        <mxCell id="AcJniJlj3SQDIRmFu_If-90" value="" style="shape=link;endArrow=classic;html=1;rounded=0;strokeColor=#788AA3;fontColor=default;fillColor=none;labelBackgroundColor=none;endSize=8;startSize=8;shadow=0;strokeWidth=2;width=10;exitX=0;exitY=0.5;exitDx=0;exitDy=0;" edge="1" parent="WIyWlLk6GJQsqaUBKTNV-1" source="AcJniJlj3SQDIRmFu_If-100">
          <mxGeometry width="50" height="50" relative="1" as="geometry">
            <mxPoint x="190" y="760" as="sourcePoint" />
            <mxPoint x="240" y="30" as="targetPoint" />
            <Array as="points">
              <mxPoint x="140" y="780" />
              <mxPoint x="70" y="780" />
              <mxPoint x="70" />
              <mxPoint x="150" />
              <mxPoint x="240" />
            </Array>
          </mxGeometry>
        </mxCell>
        <mxCell id="AcJniJlj3SQDIRmFu_If-100" value="" style="rounded=0;whiteSpace=wrap;html=1;strokeColor=#788AA3;fontColor=#46495D;fillColor=#B2C9AB;" vertex="1" parent="WIyWlLk6GJQsqaUBKTNV-1">
          <mxGeometry x="205" y="750" width="70" height="60" as="geometry" />
        </mxCell>
        <mxCell id="AcJniJlj3SQDIRmFu_If-101" value="&lt;font style=&quot;font-size: 14px;&quot;&gt;&lt;b&gt;VAGY&lt;/b&gt;&lt;/font&gt;" style="text;html=1;strokeColor=none;fillColor=none;align=center;verticalAlign=middle;whiteSpace=wrap;rounded=0;fontColor=#46495D;" vertex="1" parent="WIyWlLk6GJQsqaUBKTNV-1">
          <mxGeometry x="210" y="765" width="60" height="30" as="geometry" />
        </mxCell>
        <mxCell id="AcJniJlj3SQDIRmFu_If-103" value="" style="rounded=0;html=1;jettySize=auto;orthogonalLoop=1;fontSize=11;endArrow=classic;endFill=0;endSize=8;strokeWidth=2;shadow=0;labelBackgroundColor=none;edgeStyle=orthogonalEdgeStyle;shape=flexArrow;strokeColor=#788AA3;fontColor=default;startSize=8;fillColor=none;entryX=0.5;entryY=0;entryDx=0;entryDy=0;" edge="1" parent="WIyWlLk6GJQsqaUBKTNV-1" target="AcJniJlj3SQDIRmFu_If-100">
          <mxGeometry relative="1" as="geometry">
            <mxPoint x="239.5" y="689.5" as="sourcePoint" />
            <mxPoint x="239.5" y="739.5" as="targetPoint" />
          </mxGeometry>
        </mxCell>
        <mxCell id="AcJniJlj3SQDIRmFu_If-105" value="" style="rounded=0;html=1;jettySize=auto;orthogonalLoop=1;fontSize=11;endArrow=classic;endFill=0;endSize=8;strokeWidth=2;shadow=0;labelBackgroundColor=none;edgeStyle=orthogonalEdgeStyle;shape=flexArrow;strokeColor=#788AA3;fontColor=default;startSize=8;fillColor=none;entryX=1;entryY=0.5;entryDx=0;entryDy=0;" edge="1" parent="WIyWlLk6GJQsqaUBKTNV-1" target="AcJniJlj3SQDIRmFu_If-100">
          <mxGeometry relative="1" as="geometry">
            <mxPoint x="459.5" y="549.5" as="sourcePoint" />
            <mxPoint x="460" y="800" as="targetPoint" />
            <Array as="points">
              <mxPoint x="460" y="780" />
            </Array>
          </mxGeometry>
        </mxCell>
      </root>
    </mxGraphModel>
  </diagram>
</mxfile>
